<svg width="130" height="27" viewBox="0 0 130 27" fill="none" xmlns="http://www.w3.org/2000/svg">
<path d="M6.71875 6.92969H0.210938V6.13281H1.82812V4.78125H0.75V3.97656H1.70312V1.97656H0.71875V1.17969H6.17188V1.97656H5.17188V3.97656H6.14062V4.78125H5.07031V6.13281H6.71875V6.92969ZM4.1875 3.97656V1.97656H2.70312V3.97656H4.1875ZM4.07031 6.13281V4.78125H2.82812V6.13281H4.07031ZM13.0234 1.69531H11.0625C11.1042 1.89844 11.2148 2.09245 11.3945 2.27734C11.5768 2.46224 11.8307 2.6224 12.1562 2.75781C12.4818 2.89062 12.8698 2.98177 13.3203 3.03125L12.9531 3.8125C12.3047 3.73958 11.7578 3.57682 11.3125 3.32422C10.8672 3.06901 10.5495 2.7526 10.3594 2.375C10.1667 2.7526 9.84896 3.06901 9.40625 3.32422C8.96354 3.57682 8.41927 3.73958 7.77344 3.8125L7.41406 3.03125C7.86198 2.98177 8.2474 2.88932 8.57031 2.75391C8.89583 2.61849 9.14844 2.45833 9.32812 2.27344C9.51042 2.08854 9.6224 1.89583 9.66406 1.69531H7.71875V0.914062H13.0234V1.69531ZM13.625 4.94531H10.9453V6.17188H9.96094V4.94531H7.11719V4.14844H13.625V4.94531ZM12.9062 7.59375H7.88281V5.53906H8.875V6.79688H12.9062V7.59375ZM20.5469 6.89062H14.0391V6.0625H20.5469V6.89062ZM20 2.03125H19V4.1875H19.9688V4.96875H14.5781V4.1875H15.5312V2.03125H14.5469V1.23438H20V2.03125ZM18.0156 4.1875V2.03125H16.5312V4.1875H18.0156ZM23.6719 4.01562H22.1094V5.22656C22.5052 5.22135 22.8659 5.20703 23.1914 5.18359C23.5195 5.15755 23.8542 5.11198 24.1953 5.04688L24.2812 5.85938C23.862 5.9375 23.4583 5.98828 23.0703 6.01172C22.6823 6.03516 22.2109 6.04948 21.6562 6.05469H21.1562V3.22656H22.7109V2.10938H21.1484V1.32031H23.6719V4.01562ZM27.1016 7.71875H26.1562V0.609375H27.1016V7.71875ZM25.625 7.375H24.6953V3.84375H23.9688V3.03906H24.6953V0.742188H25.625V7.375ZM33.8203 4.63281H32.8203V0.617188H33.8203V4.63281ZM33.8203 7.64062H29.0547V4.95312H33.8203V7.64062ZM30.0391 6.84375H32.8438V5.74219H30.0391V6.84375ZM29.9219 0.9375C30.2891 0.9375 30.6198 1.01042 30.9141 1.15625C31.2109 1.30208 31.444 1.50521 31.6133 1.76562C31.7826 2.02604 31.8672 2.32292 31.8672 2.65625C31.8672 2.97656 31.7826 3.26562 31.6133 3.52344C31.444 3.78125 31.2109 3.98438 30.9141 4.13281C30.6172 4.27865 30.2865 4.35156 29.9219 4.35156C29.5573 4.35156 29.2266 4.27865 28.9297 4.13281C28.6328 3.98438 28.3997 3.78125 28.2305 3.52344C28.0612 3.26562 27.9766 2.97656 27.9766 2.65625C27.9766 2.32292 28.0612 2.02604 28.2305 1.76562C28.3997 1.50521 28.6315 1.30208 28.9258 1.15625C29.2227 1.01042 29.5547 0.9375 29.9219 0.9375ZM29.9219 1.77344C29.7318 1.77344 29.5625 1.80859 29.4141 1.87891C29.2682 1.94922 29.1536 2.05078 29.0703 2.18359C28.9896 2.31641 28.9505 2.47396 28.9531 2.65625C28.9505 2.83073 28.9896 2.98307 29.0703 3.11328C29.1536 3.24089 29.2682 3.33984 29.4141 3.41016C29.5625 3.48047 29.7318 3.51562 29.9219 3.51562C30.1068 3.51562 30.2721 3.48047 30.418 3.41016C30.5638 3.33984 30.6771 3.24089 30.7578 3.11328C30.8411 2.98307 30.8828 2.83073 30.8828 2.65625C30.8828 2.47396 30.8411 2.31641 30.7578 2.18359C30.6771 2.05078 30.5638 1.94922 30.418 1.87891C30.2721 1.80859 30.1068 1.77344 29.9219 1.77344ZM40.8516 7.71875H39.8359V6.14844H38.3906V5.39844H39.8359V0.617188H40.8516V7.71875ZM34.75 4.21875C35.6719 4.21875 36.5052 4.20573 37.25 4.17969C37.9948 4.15365 38.7057 4.09635 39.3828 4.00781L39.4375 4.73438C38.8646 4.83854 38.2318 4.91406 37.5391 4.96094V7.50781H36.5312V5.01172C36.0391 5.02474 35.487 5.03125 34.875 5.03125L34.75 4.21875ZM37.0781 0.898438C37.4219 0.898438 37.7318 0.960938 38.0078 1.08594C38.2865 1.21094 38.5052 1.38542 38.6641 1.60938C38.8229 1.83073 38.9036 2.08073 38.9062 2.35938C38.9036 2.64583 38.8229 2.89974 38.6641 3.12109C38.5078 3.33984 38.2904 3.51042 38.0117 3.63281C37.7357 3.7526 37.4245 3.8125 37.0781 3.8125C36.7266 3.8125 36.4115 3.7526 36.1328 3.63281C35.8568 3.51042 35.6406 3.33984 35.4844 3.12109C35.3281 2.89974 35.25 2.64583 35.25 2.35938C35.25 2.07812 35.3281 1.82682 35.4844 1.60547C35.6406 1.38411 35.8581 1.21094 36.1367 1.08594C36.4154 0.960938 36.7292 0.898438 37.0781 0.898438ZM37.0781 1.65625C36.901 1.65625 36.7448 1.6849 36.6094 1.74219C36.4766 1.79948 36.3724 1.88151 36.2969 1.98828C36.224 2.09505 36.1875 2.21875 36.1875 2.35938C36.1875 2.57812 36.2682 2.7487 36.4297 2.87109C36.5911 2.99349 36.8073 3.05469 37.0781 3.05469C37.3411 3.05469 37.5534 2.99349 37.7148 2.87109C37.8763 2.7487 37.9583 2.57812 37.9609 2.35938C37.9583 2.21875 37.9193 2.09505 37.8438 1.98828C37.7682 1.88151 37.6641 1.79948 37.5312 1.74219C37.401 1.6849 37.25 1.65625 37.0781 1.65625ZM47.5156 2.0625C47.5156 2.51823 47.5104 2.90495 47.5 3.22266C47.4896 3.53776 47.4596 3.89714 47.4102 4.30078C47.3633 4.70443 47.2891 5.14583 47.1875 5.625L46.1953 5.53125C46.3177 5.01823 46.4076 4.48698 46.4648 3.9375L42.3438 4.14062L42.2188 3.34375L46.5156 3.1875C46.5208 3.0599 46.5247 2.91016 46.5273 2.73828C46.5326 2.56641 46.5365 2.40365 46.5391 2.25V2.0625V2.03125H42.4375V1.23438H47.5156V2.0625ZM48.1797 6.86719H41.6953V6.05469H48.1797V6.86719ZM57.0469 7.71875H56.0859V4.10156H55.4375V7.40625H54.5078V0.796875H55.4375V3.30469H56.0859V0.609375H57.0469V7.71875ZM54.0078 1.48438C54.0052 2.18229 53.9232 2.81771 53.7617 3.39062C53.6003 3.96094 53.3281 4.48828 52.9453 4.97266C52.5651 5.45443 52.0521 5.88281 51.4062 6.25781L50.8281 5.57031C51.5365 5.15365 52.0638 4.68099 52.4102 4.15234C52.7565 3.62109 52.9648 2.9974 53.0352 2.28125H51.1875V1.48438H54.0078ZM59.0312 1.77344H60.4844V0.929688H61.4844V4.03125H58.0391V0.929688H59.0312V1.77344ZM60.4844 3.25V2.52344H59.0312V3.25H60.4844ZM63.4688 1.99219H64.4297V2.79688H63.4688V4.22656H62.4688V0.609375H63.4688V1.99219ZM63.4688 6.42188H59.7422V6.88281H63.6719V7.67188H58.7656V5.71094H62.4766V5.26562H58.75V4.49219H63.4688V6.42188ZM70.3516 3.33594H71.3594V4.15625H70.3516V7.70312H69.3516V0.609375H70.3516V3.33594ZM68.4531 1.33594C68.4479 2.46875 68.1927 3.47005 67.6875 4.33984C67.1849 5.20703 66.3646 5.91927 65.2266 6.47656L64.6641 5.71094C65.5104 5.28646 66.1602 4.78385 66.6133 4.20312C67.069 3.6224 67.3438 2.9375 67.4375 2.14844H65.0703V1.33594H68.4531ZM77.6094 7.73438H76.6016V0.609375H77.6094V7.73438ZM73.75 1.10938C74.1068 1.10938 74.4258 1.21354 74.707 1.42188C74.9909 1.63021 75.2135 1.92578 75.375 2.30859C75.5365 2.69141 75.6172 3.13542 75.6172 3.64062C75.6172 4.15104 75.5365 4.59896 75.375 4.98438C75.2135 5.36719 74.9909 5.66276 74.707 5.87109C74.4258 6.07682 74.1068 6.17969 73.75 6.17969C73.3854 6.17969 73.0599 6.07682 72.7734 5.87109C72.487 5.66276 72.263 5.36719 72.1016 4.98438C71.9427 4.59896 71.8646 4.15104 71.8672 3.64062C71.8646 3.13542 71.9427 2.69141 72.1016 2.30859C72.263 1.92578 72.487 1.63021 72.7734 1.42188C73.0599 1.21354 73.3854 1.10938 73.75 1.10938ZM73.75 2.00781C73.5651 2.00781 73.4023 2.07161 73.2617 2.19922C73.1237 2.32422 73.0169 2.50911 72.9414 2.75391C72.8659 2.9987 72.8281 3.29427 72.8281 3.64062C72.8281 3.98958 72.8659 4.28646 72.9414 4.53125C73.0169 4.77604 73.1237 4.96094 73.2617 5.08594C73.4023 5.21094 73.5651 5.27344 73.75 5.27344C73.9323 5.27344 74.0911 5.21094 74.2266 5.08594C74.362 4.95833 74.4674 4.77214 74.543 4.52734C74.6185 4.28255 74.6562 3.98698 74.6562 3.64062C74.6562 3.29688 74.6185 3.0026 74.543 2.75781C74.4674 2.51042 74.3607 2.32422 74.2227 2.19922C74.0872 2.07161 73.9297 2.00781 73.75 2.00781ZM84.3672 4.69531H79.3359V1.20312H84.3125V2.00781H80.3203V3.89844H84.3672V4.69531ZM85.0781 6.85156H78.5703V6.03125H85.0781V6.85156Z" fill="black"/>
<path d="M6.53125 26.7178C5.34961 26.7178 4.32552 26.4743 3.45898 25.9873C2.59961 25.5004 1.93717 24.8057 1.47168 23.9034C1.00618 22.9938 0.773438 21.9268 0.773438 20.7022C0.773438 19.5062 1.0026 18.4535 1.46094 17.544C1.92643 16.6273 2.58529 15.9183 3.4375 15.417C4.28971 14.9157 5.27799 14.6651 6.40234 14.6651C7.44792 14.6651 8.38249 14.8871 9.20605 15.3311C10.0368 15.7679 10.6885 16.4304 11.1611 17.3184C11.641 18.2064 11.8809 19.2914 11.8809 20.5733V21.4756H3.91016C3.91016 22.0557 4.01758 22.5606 4.23242 22.9903C4.45443 23.42 4.76595 23.753 5.16699 23.9893C5.5752 24.2185 6.05143 24.333 6.5957 24.333C7.11849 24.333 7.56966 24.2292 7.94922 24.0215C8.32878 23.8067 8.60091 23.5166 8.76562 23.1514H11.7949C11.6445 23.8675 11.3366 24.4942 10.8711 25.0313C10.4056 25.5684 9.80046 25.9838 9.05566 26.2774C8.31803 26.571 7.47656 26.7178 6.53125 26.7178ZM8.87305 19.4776C8.87305 19.0121 8.76921 18.5967 8.56152 18.2315C8.361 17.8591 8.07812 17.569 7.71289 17.3614C7.34766 17.1537 6.93229 17.0498 6.4668 17.0498C5.99414 17.0498 5.56445 17.1573 5.17773 17.3721C4.79818 17.5869 4.49382 17.8806 4.26465 18.253C4.04264 18.6254 3.92448 19.0336 3.91016 19.4776H8.87305ZM24.2773 15.9326C24.0625 15.195 23.665 14.6185 23.085 14.2032C22.512 13.7806 21.8066 13.5694 20.9688 13.5694C20.1667 13.5694 19.4613 13.7699 18.8525 14.1709C18.2438 14.572 17.7712 15.1592 17.4346 15.9326C17.098 16.6989 16.9297 17.6156 16.9297 18.6826C16.9297 19.764 17.0944 20.6914 17.4238 21.4649C17.7604 22.2383 18.2331 22.8291 18.8418 23.2373C19.4505 23.6384 20.1667 23.8389 20.9902 23.8389C21.7207 23.8389 22.3509 23.71 22.8809 23.4522C23.418 23.1872 23.8298 22.8112 24.1162 22.3242C24.4098 21.8373 24.5638 21.2679 24.5781 20.6162H21.2051V18.1885H27.6934V20.1221C27.6934 21.4613 27.4069 22.6286 26.834 23.6241C26.2682 24.6123 25.4769 25.3714 24.46 25.9014C23.443 26.4313 22.2793 26.6963 20.9688 26.6963C19.5221 26.6963 18.2438 26.3741 17.1338 25.7295C16.0309 25.0778 15.1715 24.154 14.5557 22.958C13.9469 21.7549 13.6426 20.3441 13.6426 18.7256C13.6426 17.0856 13.9577 15.6605 14.5879 14.4502C15.2181 13.2399 16.0846 12.3161 17.1875 11.6787C18.2904 11.0342 19.5293 10.7119 20.9043 10.7119C22.0573 10.7119 23.11 10.9339 24.0625 11.378C25.0221 11.8148 25.8063 12.4307 26.415 13.2256C27.0238 14.0134 27.3997 14.9157 27.543 15.9326H24.2773ZM35.2344 26.7178C34.0742 26.7178 33.0645 26.4672 32.2051 25.9659C31.3457 25.4645 30.6833 24.7591 30.2178 23.8496C29.7523 22.933 29.5195 21.8767 29.5195 20.6807C29.5195 19.4847 29.7487 18.432 30.207 17.5225C30.6725 16.613 31.335 15.9112 32.1943 15.417C33.0609 14.9157 34.0742 14.6651 35.2344 14.6651C36.3945 14.6651 37.4079 14.9157 38.2744 15.417C39.141 15.9112 39.807 16.613 40.2725 17.5225C40.738 18.432 40.9707 19.4847 40.9707 20.6807C40.9707 21.8767 40.738 22.933 40.2725 23.8496C39.807 24.7591 39.141 25.4645 38.2744 25.9659C37.4079 26.4672 36.3945 26.7178 35.2344 26.7178ZM35.2559 24.2471C35.7858 24.2471 36.237 24.0967 36.6094 23.7959C36.9818 23.488 37.2611 23.0655 37.4473 22.5284C37.6335 21.9912 37.7266 21.3754 37.7266 20.6807C37.7266 19.986 37.6335 19.3701 37.4473 18.833C37.2611 18.2888 36.9818 17.8627 36.6094 17.5547C36.237 17.2468 35.7858 17.0928 35.2559 17.0928C34.7188 17.0928 34.2604 17.2468 33.8809 17.5547C33.5085 17.8627 33.2256 18.2888 33.0322 18.833C32.8389 19.3701 32.7422 19.986 32.7422 20.6807C32.7422 21.3682 32.8389 21.9841 33.0322 22.5284C33.2256 23.0655 33.5085 23.488 33.8809 23.7959C34.2604 24.0967 34.7188 24.2471 35.2559 24.2471ZM49.3066 26.4815H45.7402L41.6582 14.8155H45.0098L47.459 23.1944H47.5879L50.0371 14.8155H53.4102L49.3066 26.4815ZM55.0215 10.9268H65.2695V13.5909H58.2441V17.3721H64.6035V20.0362H58.2441V26.4815H55.0215V10.9268ZM67.1387 14.8155H70.2109V16.835H70.3398C70.5475 16.126 70.902 15.5853 71.4033 15.2129C71.9046 14.8334 72.4883 14.6436 73.1543 14.6436C73.5195 14.6436 73.8561 14.6794 74.1641 14.751V17.5869C74.0065 17.544 73.7952 17.5046 73.5303 17.4688C73.2653 17.433 73.0254 17.4151 72.8105 17.4151C72.3379 17.4151 71.9118 17.5189 71.5322 17.7266C71.1527 17.9343 70.8555 18.2243 70.6406 18.5967C70.4258 18.9619 70.3184 19.3773 70.3184 19.8428V26.4815H67.1387V14.8155ZM74.8301 23.2159C74.8301 22.0127 75.2347 21.1319 76.0439 20.5733C76.8532 20.0147 77.8952 19.6996 79.1699 19.628C79.9577 19.5778 80.9245 19.5277 82.0703 19.4776V18.5323C82.056 18.0453 81.8877 17.6657 81.5654 17.3936C81.2432 17.1214 80.7884 16.9854 80.2012 16.9854C79.6712 16.9854 79.238 17.1 78.9014 17.3291C78.5648 17.5583 78.3535 17.8734 78.2676 18.2744H75.2383C75.3027 17.5869 75.5391 16.9711 75.9473 16.4268C76.3626 15.8825 76.9391 15.4528 77.6768 15.1377C78.4144 14.8226 79.2845 14.6651 80.2871 14.6651C81.1751 14.6651 81.9915 14.8047 82.7363 15.084C83.4883 15.3633 84.0898 15.8002 84.541 16.3946C84.9993 16.9818 85.2285 17.723 85.2285 18.6182V26.4815H82.2207V24.8701H82.1348C81.8268 25.4359 81.3864 25.8835 80.8135 26.2129C80.2477 26.5352 79.5495 26.6963 78.7188 26.6963C77.9596 26.6963 77.2865 26.5674 76.6992 26.3096C76.1191 26.0446 75.6608 25.6507 75.3242 25.128C74.9948 24.6052 74.8301 23.9678 74.8301 23.2159ZM77.8809 23.1299C77.8809 23.5668 78.0384 23.9069 78.3535 24.1504C78.6758 24.3867 79.0983 24.5049 79.6211 24.5049C80.0938 24.5049 80.5163 24.4082 80.8887 24.2149C81.2682 24.0215 81.5618 23.7565 81.7695 23.42C81.9772 23.0834 82.0775 22.7145 82.0703 22.3135V21.4649C81.7337 21.472 81.3184 21.4899 80.8242 21.5186C80.3301 21.5472 79.9505 21.5759 79.6855 21.6045C79.127 21.6618 78.6865 21.8194 78.3643 22.0772C78.042 22.335 77.8809 22.6859 77.8809 23.1299ZM87.6562 14.8155H90.6855V16.8565H90.8145C91.0651 16.1761 91.4733 15.6426 92.0391 15.2559C92.6048 14.862 93.278 14.6651 94.0586 14.6651C94.8607 14.6651 95.541 14.862 96.0996 15.2559C96.6654 15.6426 97.0449 16.1761 97.2383 16.8565H97.3457C97.5964 16.1833 98.0332 15.6498 98.6562 15.2559C99.2793 14.862 100.017 14.6651 100.869 14.6651C101.592 14.6651 102.23 14.8226 102.781 15.1377C103.34 15.4457 103.773 15.9004 104.081 16.502C104.389 17.0964 104.543 17.8089 104.543 18.6397V26.4815H101.363V19.2627C101.363 18.6182 101.195 18.1276 100.858 17.791C100.529 17.4545 100.089 17.2862 99.5371 17.2862C98.9427 17.2862 98.4772 17.4759 98.1406 17.8555C97.8112 18.2279 97.6465 18.7256 97.6465 19.3487V26.4815H94.5527V19.1768C94.5527 18.6039 94.388 18.1455 94.0586 17.8018C93.7292 17.458 93.2923 17.2862 92.748 17.2862C92.39 17.2862 92.0641 17.3793 91.7705 17.5655C91.484 17.7445 91.2549 17.9987 91.083 18.3282C90.9183 18.6576 90.8359 19.0407 90.8359 19.4776V26.4815H87.6562V14.8155ZM112.277 26.7178C111.096 26.7178 110.072 26.4743 109.205 25.9873C108.346 25.5004 107.683 24.8057 107.218 23.9034C106.752 22.9938 106.52 21.9268 106.52 20.7022C106.52 19.5062 106.749 18.4535 107.207 17.544C107.673 16.6273 108.331 15.9183 109.184 15.417C110.036 14.9157 111.024 14.6651 112.148 14.6651C113.194 14.6651 114.129 14.8871 114.952 15.3311C115.783 15.7679 116.435 16.4304 116.907 17.3184C117.387 18.2064 117.627 19.2914 117.627 20.5733V21.4756H109.656C109.656 22.0557 109.764 22.5606 109.979 22.9903C110.201 23.42 110.512 23.753 110.913 23.9893C111.321 24.2185 111.798 24.333 112.342 24.333C112.865 24.333 113.316 24.2292 113.695 24.0215C114.075 23.8067 114.347 23.5166 114.512 23.1514H117.541C117.391 23.8675 117.083 24.4942 116.617 25.0313C116.152 25.5684 115.547 25.9838 114.802 26.2774C114.064 26.571 113.223 26.7178 112.277 26.7178ZM114.619 19.4776C114.619 19.0121 114.515 18.5967 114.308 18.2315C114.107 17.8591 113.824 17.569 113.459 17.3614C113.094 17.1537 112.678 17.0498 112.213 17.0498C111.74 17.0498 111.311 17.1573 110.924 17.3721C110.544 17.5869 110.24 17.8806 110.011 18.253C109.789 18.6254 109.671 19.0336 109.656 19.4776H114.619Z" fill="black"/>
</svg>
