<svg width="130" height="29" viewBox="0 0 130 29" fill="none" xmlns="http://www.w3.org/2000/svg">
<path d="M7.125 28.2578C5.83594 28.2578 4.71875 27.9922 3.77344 27.4609C2.83594 26.9297 2.11328 26.1719 1.60547 25.1875C1.09766 24.1953 0.84375 23.0312 0.84375 21.6953C0.84375 20.3906 1.09375 19.2422 1.59375 18.25C2.10156 17.25 2.82031 16.4766 3.75 15.9297C4.67969 15.3828 5.75781 15.1094 6.98438 15.1094C8.125 15.1094 9.14453 15.3516 10.043 15.8359C10.9492 16.3125 11.6602 17.0352 12.1758 18.0039C12.6992 18.9727 12.9609 20.1562 12.9609 21.5547V22.5391H4.26562C4.26562 23.1719 4.38281 23.7227 4.61719 24.1914C4.85938 24.6602 5.19922 25.0234 5.63672 25.2812C6.08203 25.5312 6.60156 25.6562 7.19531 25.6562C7.76562 25.6562 8.25781 25.543 8.67188 25.3164C9.08594 25.082 9.38281 24.7656 9.5625 24.3672H12.8672C12.7031 25.1484 12.3672 25.832 11.8594 26.418C11.3516 27.0039 10.6914 27.457 9.87891 27.7773C9.07422 28.0977 8.15625 28.2578 7.125 28.2578ZM9.67969 20.3594C9.67969 19.8516 9.56641 19.3984 9.33984 19C9.12109 18.5938 8.8125 18.2773 8.41406 18.0508C8.01562 17.8242 7.5625 17.7109 7.05469 17.7109C6.53906 17.7109 6.07031 17.8281 5.64844 18.0625C5.23438 18.2969 4.90234 18.6172 4.65234 19.0234C4.41016 19.4297 4.28125 19.875 4.26562 20.3594H9.67969ZM26.4844 16.4922C26.25 15.6875 25.8164 15.0586 25.1836 14.6055C24.5586 14.1445 23.7891 13.9141 22.875 13.9141C22 13.9141 21.2305 14.1328 20.5664 14.5703C19.9023 15.0078 19.3867 15.6484 19.0195 16.4922C18.6523 17.3281 18.4688 18.3281 18.4688 19.4922C18.4688 20.6719 18.6484 21.6836 19.0078 22.5273C19.375 23.3711 19.8906 24.0156 20.5547 24.4609C21.2188 24.8984 22 25.1172 22.8984 25.1172C23.6953 25.1172 24.3828 24.9766 24.9609 24.6953C25.5469 24.4062 25.9961 23.9961 26.3086 23.4648C26.6289 22.9336 26.7969 22.3125 26.8125 21.6016H23.1328V18.9531H30.2109V21.0625C30.2109 22.5234 29.8984 23.7969 29.2734 24.8828C28.6562 25.9609 27.793 26.7891 26.6836 27.3672C25.5742 27.9453 24.3047 28.2344 22.875 28.2344C21.2969 28.2344 19.9023 27.8828 18.6914 27.1797C17.4883 26.4688 16.5508 25.4609 15.8789 24.1562C15.2148 22.8438 14.8828 21.3047 14.8828 19.5391C14.8828 17.75 15.2266 16.1953 15.9141 14.875C16.6016 13.5547 17.5469 12.5469 18.75 11.8516C19.9531 11.1484 21.3047 10.7969 22.8047 10.7969C24.0625 10.7969 25.2109 11.0391 26.25 11.5234C27.2969 12 28.1523 12.6719 28.8164 13.5391C29.4805 14.3984 29.8906 15.3828 30.0469 16.4922H26.4844ZM38.4375 28.2578C37.1719 28.2578 36.0703 27.9844 35.1328 27.4375C34.1953 26.8906 33.4727 26.1211 32.9648 25.1289C32.457 24.1289 32.2031 22.9766 32.2031 21.6719C32.2031 20.3672 32.4531 19.2188 32.9531 18.2266C33.4609 17.2344 34.1836 16.4688 35.1211 15.9297C36.0664 15.3828 37.1719 15.1094 38.4375 15.1094C39.7031 15.1094 40.8086 15.3828 41.7539 15.9297C42.6992 16.4688 43.4258 17.2344 43.9336 18.2266C44.4414 19.2188 44.6953 20.3672 44.6953 21.6719C44.6953 22.9766 44.4414 24.1289 43.9336 25.1289C43.4258 26.1211 42.6992 26.8906 41.7539 27.4375C40.8086 27.9844 39.7031 28.2578 38.4375 28.2578ZM38.4609 25.5625C39.0391 25.5625 39.5312 25.3984 39.9375 25.0703C40.3438 24.7344 40.6484 24.2734 40.8516 23.6875C41.0547 23.1016 41.1562 22.4297 41.1562 21.6719C41.1562 20.9141 41.0547 20.2422 40.8516 19.6562C40.6484 19.0625 40.3438 18.5977 39.9375 18.2617C39.5312 17.9258 39.0391 17.7578 38.4609 17.7578C37.875 17.7578 37.375 17.9258 36.9609 18.2617C36.5547 18.5977 36.2461 19.0625 36.0352 19.6562C35.8242 20.2422 35.7188 20.9141 35.7188 21.6719C35.7188 22.4219 35.8242 23.0938 36.0352 23.6875C36.2461 24.2734 36.5547 24.7344 36.9609 25.0703C37.375 25.3984 37.875 25.5625 38.4609 25.5625ZM53.7891 28H49.8984L45.4453 15.2734H49.1016L51.7734 24.4141H51.9141L54.5859 15.2734H58.2656L53.7891 28ZM60.0234 11.0312H71.2031V13.9375H63.5391V18.0625H70.4766V20.9688H63.5391V28H60.0234V11.0312ZM73.2422 15.2734H76.5938V17.4766H76.7344C76.9609 16.7031 77.3477 16.1133 77.8945 15.707C78.4414 15.293 79.0781 15.0859 79.8047 15.0859C80.2031 15.0859 80.5703 15.125 80.9062 15.2031V18.2969C80.7344 18.25 80.5039 18.207 80.2148 18.168C79.9258 18.1289 79.6641 18.1094 79.4297 18.1094C78.9141 18.1094 78.4492 18.2227 78.0352 18.4492C77.6211 18.6758 77.2969 18.9922 77.0625 19.3984C76.8281 19.7969 76.7109 20.25 76.7109 20.7578V28H73.2422V15.2734ZM81.6328 24.4375C81.6328 23.125 82.0742 22.1641 82.957 21.5547C83.8398 20.9453 84.9766 20.6016 86.3672 20.5234C87.2266 20.4688 88.2812 20.4141 89.5312 20.3594V19.3281C89.5156 18.7969 89.332 18.3828 88.9805 18.0859C88.6289 17.7891 88.1328 17.6406 87.4922 17.6406C86.9141 17.6406 86.4414 17.7656 86.0742 18.0156C85.707 18.2656 85.4766 18.6094 85.3828 19.0469H82.0781C82.1484 18.2969 82.4062 17.625 82.8516 17.0312C83.3047 16.4375 83.9336 15.9688 84.7383 15.625C85.543 15.2812 86.4922 15.1094 87.5859 15.1094C88.5547 15.1094 89.4453 15.2617 90.2578 15.5664C91.0781 15.8711 91.7344 16.3477 92.2266 16.9961C92.7266 17.6367 92.9766 18.4453 92.9766 19.4219V28H89.6953V26.2422H89.6016C89.2656 26.8594 88.7852 27.3477 88.1602 27.707C87.543 28.0586 86.7812 28.2344 85.875 28.2344C85.0469 28.2344 84.3125 28.0938 83.6719 27.8125C83.0391 27.5234 82.5391 27.0938 82.1719 26.5234C81.8125 25.9531 81.6328 25.2578 81.6328 24.4375ZM84.9609 24.3438C84.9609 24.8203 85.1328 25.1914 85.4766 25.457C85.8281 25.7148 86.2891 25.8438 86.8594 25.8438C87.375 25.8438 87.8359 25.7383 88.2422 25.5273C88.6562 25.3164 88.9766 25.0273 89.2031 24.6602C89.4297 24.293 89.5391 23.8906 89.5312 23.4531V22.5273C89.1641 22.5352 88.7109 22.5547 88.1719 22.5859C87.6328 22.6172 87.2188 22.6484 86.9297 22.6797C86.3203 22.7422 85.8398 22.9141 85.4883 23.1953C85.1367 23.4766 84.9609 23.8594 84.9609 24.3438ZM95.625 15.2734H98.9297V17.5H99.0703C99.3438 16.7578 99.7891 16.1758 100.406 15.7539C101.023 15.3242 101.758 15.1094 102.609 15.1094C103.484 15.1094 104.227 15.3242 104.836 15.7539C105.453 16.1758 105.867 16.7578 106.078 17.5H106.195C106.469 16.7656 106.945 16.1836 107.625 15.7539C108.305 15.3242 109.109 15.1094 110.039 15.1094C110.828 15.1094 111.523 15.2812 112.125 15.625C112.734 15.9609 113.207 16.457 113.543 17.1133C113.879 17.7617 114.047 18.5391 114.047 19.4453V28H110.578V20.125C110.578 19.4219 110.395 18.8867 110.027 18.5195C109.668 18.1523 109.188 17.9688 108.586 17.9688C107.938 17.9688 107.43 18.1758 107.062 18.5898C106.703 18.9961 106.523 19.5391 106.523 20.2188V28H103.148V20.0312C103.148 19.4062 102.969 18.9062 102.609 18.5312C102.25 18.1562 101.773 17.9688 101.18 17.9688C100.789 17.9688 100.434 18.0703 100.113 18.2734C99.8008 18.4688 99.5508 18.7461 99.3633 19.1055C99.1836 19.4648 99.0938 19.8828 99.0938 20.3594V28H95.625V15.2734ZM122.484 28.2578C121.195 28.2578 120.078 27.9922 119.133 27.4609C118.195 26.9297 117.473 26.1719 116.965 25.1875C116.457 24.1953 116.203 23.0312 116.203 21.6953C116.203 20.3906 116.453 19.2422 116.953 18.25C117.461 17.25 118.18 16.4766 119.109 15.9297C120.039 15.3828 121.117 15.1094 122.344 15.1094C123.484 15.1094 124.504 15.3516 125.402 15.8359C126.309 16.3125 127.02 17.0352 127.535 18.0039C128.059 18.9727 128.32 20.1562 128.32 21.5547V22.5391H119.625C119.625 23.1719 119.742 23.7227 119.977 24.1914C120.219 24.6602 120.559 25.0234 120.996 25.2812C121.441 25.5312 121.961 25.6562 122.555 25.6562C123.125 25.6562 123.617 25.543 124.031 25.3164C124.445 25.082 124.742 24.7656 124.922 24.3672H128.227C128.062 25.1484 127.727 25.832 127.219 26.418C126.711 27.0039 126.051 27.457 125.238 27.7773C124.434 28.0977 123.516 28.2578 122.484 28.2578ZM125.039 20.3594C125.039 19.8516 124.926 19.3984 124.699 19C124.48 18.5938 124.172 18.2773 123.773 18.0508C123.375 17.8242 122.922 17.7109 122.414 17.7109C121.898 17.7109 121.43 17.8281 121.008 18.0625C120.594 18.2969 120.262 18.6172 120.012 19.0234C119.77 19.4297 119.641 19.875 119.625 20.3594H125.039Z" fill="white"/>
<path d="M8.39844 7.91211H0.263672V6.91602H2.28516V5.22656H0.9375V4.2207H2.12891V1.7207H0.898438V0.724609H7.71484V1.7207H6.46484V4.2207H7.67578V5.22656H6.33789V6.91602H8.39844V7.91211ZM5.23438 4.2207V1.7207H3.37891V4.2207H5.23438ZM5.08789 6.91602V5.22656H3.53516V6.91602H5.08789ZM16.2793 1.36914H13.8281C13.8802 1.62305 14.0186 1.86556 14.2432 2.09668C14.471 2.3278 14.7884 2.52799 15.1953 2.69727C15.6022 2.86328 16.0872 2.97721 16.6504 3.03906L16.1914 4.01562C15.3809 3.92448 14.6973 3.72103 14.1406 3.40527C13.584 3.08626 13.1868 2.69076 12.9492 2.21875C12.7083 2.69076 12.3112 3.08626 11.7578 3.40527C11.2044 3.72103 10.5241 3.92448 9.7168 4.01562L9.26758 3.03906C9.82747 2.97721 10.3092 2.86165 10.7129 2.69238C11.1198 2.52311 11.4355 2.32292 11.6602 2.0918C11.888 1.86068 12.028 1.61979 12.0801 1.36914H9.64844V0.392578H16.2793V1.36914ZM17.0312 5.43164H13.6816V6.96484H12.4512V5.43164H8.89648V4.43555H17.0312V5.43164ZM16.1328 8.74219H9.85352V6.17383H11.0938V7.74609H16.1328V8.74219ZM25.6836 7.86328H17.5488V6.82812H25.6836V7.86328ZM25 1.78906H23.75V4.48438H24.9609V5.46094H18.2227V4.48438H19.4141V1.78906H18.1836V0.792969H25V1.78906ZM22.5195 4.48438V1.78906H20.6641V4.48438H22.5195ZM29.5898 4.26953H27.6367V5.7832C28.1315 5.77669 28.5824 5.75879 28.9893 5.72949C29.3994 5.69694 29.8177 5.63997 30.2441 5.55859L30.3516 6.57422C29.8275 6.67188 29.3229 6.73535 28.8379 6.76465C28.3529 6.79395 27.7637 6.81185 27.0703 6.81836H26.4453V3.2832H28.3887V1.88672H26.4355V0.900391H29.5898V4.26953ZM33.877 8.89844H32.6953V0.0117188H33.877V8.89844ZM32.0312 8.46875H30.8691V4.05469H29.9609V3.04883H30.8691V0.177734H32.0312V8.46875ZM42.2754 5.04102H41.0254V0.0214844H42.2754V5.04102ZM42.2754 8.80078H36.3184V5.44141H42.2754V8.80078ZM37.5488 7.80469H41.0547V6.42773H37.5488V7.80469ZM37.4023 0.421875C37.8613 0.421875 38.2747 0.513021 38.6426 0.695312C39.0137 0.877604 39.305 1.13151 39.5166 1.45703C39.7282 1.78255 39.834 2.15365 39.834 2.57031C39.834 2.9707 39.7282 3.33203 39.5166 3.6543C39.305 3.97656 39.0137 4.23047 38.6426 4.41602C38.2715 4.59831 37.8581 4.68945 37.4023 4.68945C36.9466 4.68945 36.5332 4.59831 36.1621 4.41602C35.791 4.23047 35.4997 3.97656 35.2881 3.6543C35.0765 3.33203 34.9707 2.9707 34.9707 2.57031C34.9707 2.15365 35.0765 1.78255 35.2881 1.45703C35.4997 1.13151 35.7894 0.877604 36.1572 0.695312C36.5283 0.513021 36.9434 0.421875 37.4023 0.421875ZM37.4023 1.4668C37.1647 1.4668 36.9531 1.51074 36.7676 1.59863C36.5853 1.68652 36.4421 1.81348 36.3379 1.97949C36.237 2.14551 36.1882 2.34245 36.1914 2.57031C36.1882 2.78841 36.237 2.97884 36.3379 3.1416C36.4421 3.30111 36.5853 3.4248 36.7676 3.5127C36.9531 3.60059 37.1647 3.64453 37.4023 3.64453C37.6335 3.64453 37.8402 3.60059 38.0225 3.5127C38.2048 3.4248 38.3464 3.30111 38.4473 3.1416C38.5514 2.97884 38.6035 2.78841 38.6035 2.57031C38.6035 2.34245 38.5514 2.14551 38.4473 1.97949C38.3464 1.81348 38.2048 1.68652 38.0225 1.59863C37.8402 1.51074 37.6335 1.4668 37.4023 1.4668ZM51.0645 8.89844H49.7949V6.93555H47.9883V5.99805H49.7949V0.0214844H51.0645V8.89844ZM43.4375 4.52344C44.5898 4.52344 45.6315 4.50716 46.5625 4.47461C47.4935 4.44206 48.3822 4.37044 49.2285 4.25977L49.2969 5.16797C48.5807 5.29818 47.7897 5.39258 46.9238 5.45117V8.63477H45.6641V5.51465C45.0488 5.53092 44.3587 5.53906 43.5938 5.53906L43.4375 4.52344ZM46.3477 0.373047C46.7773 0.373047 47.1647 0.451172 47.5098 0.607422C47.8581 0.763672 48.1315 0.981771 48.3301 1.26172C48.5286 1.53841 48.6296 1.85091 48.6328 2.19922C48.6296 2.55729 48.5286 2.87467 48.3301 3.15137C48.1348 3.4248 47.863 3.63802 47.5146 3.79102C47.1696 3.94076 46.7806 4.01562 46.3477 4.01562C45.9082 4.01562 45.5143 3.94076 45.166 3.79102C44.821 3.63802 44.5508 3.4248 44.3555 3.15137C44.1602 2.87467 44.0625 2.55729 44.0625 2.19922C44.0625 1.84766 44.1602 1.53353 44.3555 1.25684C44.5508 0.980143 44.8226 0.763672 45.1709 0.607422C45.5192 0.451172 45.9115 0.373047 46.3477 0.373047ZM46.3477 1.32031C46.1263 1.32031 45.931 1.35612 45.7617 1.42773C45.5957 1.49935 45.4655 1.60189 45.3711 1.73535C45.2799 1.86882 45.2344 2.02344 45.2344 2.19922C45.2344 2.47266 45.3353 2.68587 45.5371 2.83887C45.7389 2.99186 46.0091 3.06836 46.3477 3.06836C46.6764 3.06836 46.9417 2.99186 47.1436 2.83887C47.3454 2.68587 47.4479 2.47266 47.4512 2.19922C47.4479 2.02344 47.3991 1.86882 47.3047 1.73535C47.2103 1.60189 47.0801 1.49935 46.9141 1.42773C46.7513 1.35612 46.5625 1.32031 46.3477 1.32031ZM59.3945 1.82812C59.3945 2.39779 59.388 2.88118 59.375 3.27832C59.362 3.6722 59.3245 4.12142 59.2627 4.62598C59.2041 5.13053 59.1113 5.68229 58.9844 6.28125L57.7441 6.16406C57.8971 5.52279 58.0094 4.85872 58.0811 4.17188L52.9297 4.42578L52.7734 3.42969L58.1445 3.23438C58.151 3.07487 58.1559 2.8877 58.1592 2.67285C58.1657 2.45801 58.1706 2.25456 58.1738 2.0625V1.82812V1.78906H53.0469V0.792969H59.3945V1.82812ZM60.2246 7.83398H52.1191V6.81836H60.2246V7.83398ZM71.3086 8.89844H70.1074V4.37695H69.2969V8.50781H68.1348V0.246094H69.2969V3.38086H70.1074V0.0117188H71.3086V8.89844ZM67.5098 1.10547C67.5065 1.97786 67.404 2.77214 67.2021 3.48828C67.0003 4.20117 66.6602 4.86035 66.1816 5.46582C65.7064 6.06803 65.0651 6.60352 64.2578 7.07227L63.5352 6.21289C64.4206 5.69206 65.0798 5.10124 65.5127 4.44043C65.9456 3.77637 66.2061 2.99674 66.2939 2.10156H63.9844V1.10547H67.5098ZM73.7891 1.4668H75.6055V0.412109H76.8555V4.28906H72.5488V0.412109H73.7891V1.4668ZM75.6055 3.3125V2.4043H73.7891V3.3125H75.6055ZM79.3359 1.74023H80.5371V2.74609H79.3359V4.5332H78.0859V0.0117188H79.3359V1.74023ZM79.3359 7.27734H74.6777V7.85352H79.5898V8.83984H73.457V6.38867H78.0957V5.83203H73.4375V4.86523H79.3359V7.27734ZM87.9395 3.41992H89.1992V4.44531H87.9395V8.87891H86.6895V0.0117188H87.9395V3.41992ZM85.5664 0.919922C85.5599 2.33594 85.2409 3.58757 84.6094 4.6748C83.9811 5.75879 82.9557 6.64909 81.5332 7.3457L80.8301 6.38867C81.888 5.85807 82.7002 5.22982 83.2666 4.50391C83.8363 3.77799 84.1797 2.92188 84.2969 1.93555H81.3379V0.919922H85.5664ZM97.0117 8.91797H95.752V0.0117188H97.0117V8.91797ZM92.1875 0.636719C92.6335 0.636719 93.0322 0.766927 93.3838 1.02734C93.7386 1.28776 94.0169 1.65723 94.2188 2.13574C94.4206 2.61426 94.5215 3.16927 94.5215 3.80078C94.5215 4.4388 94.4206 4.9987 94.2188 5.48047C94.0169 5.95898 93.7386 6.32845 93.3838 6.58887C93.0322 6.84603 92.6335 6.97461 92.1875 6.97461C91.7318 6.97461 91.3249 6.84603 90.9668 6.58887C90.6087 6.32845 90.3288 5.95898 90.127 5.48047C89.9284 4.9987 89.8307 4.4388 89.834 3.80078C89.8307 3.16927 89.9284 2.61426 90.127 2.13574C90.3288 1.65723 90.6087 1.28776 90.9668 1.02734C91.3249 0.766927 91.7318 0.636719 92.1875 0.636719ZM92.1875 1.75977C91.9564 1.75977 91.7529 1.83952 91.5771 1.99902C91.4046 2.15527 91.2712 2.38639 91.1768 2.69238C91.0824 2.99837 91.0352 3.36784 91.0352 3.80078C91.0352 4.23698 91.0824 4.60807 91.1768 4.91406C91.2712 5.22005 91.4046 5.45117 91.5771 5.60742C91.7529 5.76367 91.9564 5.8418 92.1875 5.8418C92.4154 5.8418 92.6139 5.76367 92.7832 5.60742C92.9525 5.44792 93.0843 5.21517 93.1787 4.90918C93.2731 4.60319 93.3203 4.23372 93.3203 3.80078C93.3203 3.37109 93.2731 3.00326 93.1787 2.69727C93.0843 2.38802 92.9508 2.15527 92.7783 1.99902C92.609 1.83952 92.4121 1.75977 92.1875 1.75977ZM105.459 5.11914H99.1699V0.753906H105.391V1.75977H100.4V4.12305H105.459V5.11914ZM106.348 7.81445H98.2129V6.78906H106.348V7.81445Z" fill="white"/>
</svg>
